<svg xmlns:xlink="http://www.w3.org/1999/xlink" xmlns="http://www.w3.org/2000/svg" width="257.186" height="490.997" viewBox="0 0 257.186 490.997" data-prefix="iiv055uz9" class="custom-cursor-on-hover"><path d="M2.476 3.847a10.634 10.634 0 0 0 .824 14.5l228.046 226.89L3.914 472.747a10.7 10.7 0 1 0 15.085 15.17.62.62 0 0 1 .084-.08l234.973-235.076a10.652 10.652 0 0 0-.02-15.087L18.421 3.237c-.071-.075-.151-.14-.231-.212-.02-.016-.03-.033-.05-.05-.04-.04-.091-.073-.131-.112a9.257 9.257 0 0 0-.472-.411A10.72 10.72 0 0 0 2.476 3.847" fill-rule="evenodd" class="path-ipwcvdo10" fill="#FFFFFF"></path></svg>