<svg xmlns:xlink="http://www.w3.org/1999/xlink" xmlns="http://www.w3.org/2000/svg" width="256.969" height="491" viewBox="0 0 256.969 491" data-prefix="ipm7cdxnk" class="custom-cursor-on-hover"><path d="M254.499 487.15a10.654 10.654 0 0 0-.83-14.5L25.79 245.762 253.059 18.256a10.7 10.7 0 1 0-15.08-15.174.62.62 0 0 1-.08.084L3.099 238.238a10.658 10.658 0 0 0 .02 15.088l235.44 234.434a2.291 2.291 0 0 0 .23.21.236.236 0 0 0 .05.05c.04.04.09.08.13.12.15.14.31.28.48.41a10.708 10.708 0 0 0 15.05-1.4" fill-rule="evenodd" class="path-igxpps8s6" fill="#FFFFFF"></path></svg>