<svg version="1.1" preserveAspectRatio="xMidYMid meet" xmlns="http://www.w3.org/2000/svg" xmlns:xlink="http://www.w3.org/1999/xlink" viewBox="0 0 1000 1000"><defs><path id="def-e8c12f25-3105-4ec6-b8cd-f003933547c5" d="M799.656,500 A299.656,299.656 0 1 0 200.344,500 A299.656,299.656 0 1 0 799.656,500 Z" stroke-linecap="round" stroke-linejoin="round" stroke-miterlimit="25"/><path id="def-2e0ec8fe-599b-4cac-bce1-645936179480" d="M352.902,438.837 L337.394,438.837 L337.394,438.951 C338.871,439.917,340.461,442.643,340.461,447.131 L340.461,469.796 C340.461,474.454,338.814,477.238,337.394,478.204 L337.394,478.317 L351.311,478.317 L351.311,478.204 C349.834,477.238,348.244,474.511,348.244,470.024 L348.244,465.309 L352.902,465.309 C361.934,465.309,367.217,460.935,367.217,451.675 C367.217,443.495,361.934,438.837,352.902,438.837 Z M351.595,459.685 L348.244,459.628 L348.244,444.461 L351.595,444.461 C356.765,444.461,359.15,446.847,359.15,452.073 C359.15,456.958,356.821,459.742,351.595,459.685 Z M392.211,479.453 C404.879,479.453,413.343,470.819,413.343,458.151 C413.343,445.938,405.22,437.701,393.063,437.701 C379.941,437.701,371.989,446.165,371.989,458.946 C371.989,470.592,379.487,479.453,392.211,479.453 Z M392.779,473.545 C384.656,473.545,380.453,467.695,380.453,458.378 C380.453,449.517,384.997,443.609,392.495,443.609 C400.221,443.609,404.879,449.119,404.879,458.719 C404.879,467.808,399.766,473.545,392.779,473.545 Z M438.906,479.169 C443.677,479.169,448.108,478.033,451.005,477.011 L452.368,466.842 L452.255,466.786 C449.301,470.648,445.609,473.148,439.474,473.148 C431.578,473.148,427.374,466.956,427.374,458.265 C427.374,449.517,432.202,444.007,440.212,444.007 C444.586,444.007,448.733,445.711,451.062,449.346 L451.176,449.289 L450.267,439.462 C446.972,438.496,443.904,438.042,440.269,438.042 C427.317,438.042,418.91,446.052,418.91,458.833 C418.91,470.478,426.636,479.169,438.906,479.169 Z M500.596,438.383 C497.983,438.724,495.598,438.837,492.814,438.837 L478.954,438.837 C476.17,438.837,473.784,438.724,471.171,438.383 L470.205,448.778 L470.319,448.835 C471.626,446.563,474.295,444.631,477.704,444.631 L482.021,444.631 L482.021,469.342 C482.021,474.17,480.203,477.238,478.556,478.204 L478.556,478.317 L493.269,478.317 L493.269,478.204 C491.394,477.238,489.803,474.227,489.803,469.342 L489.803,444.631 L494.064,444.631 C497.472,444.631,500.142,446.563,501.449,448.835 L501.562,448.778 Z M535.077,467.41 C532.635,470.876,528.658,472.75,523.66,472.75 L517.468,472.75 L517.468,459.969 L522.694,459.969 C525.875,459.969,527.92,460.991,528.886,463.548 L528.999,463.548 L530.647,454.004 C528.09,454.345,526.5,454.402,521.785,454.402 L517.468,454.402 L517.468,444.404 L524.966,444.404 C529.397,444.404,532.521,445.824,533.885,448.608 L533.998,448.551 L533.032,438.383 C531.783,438.667,529.283,438.837,527.011,438.837 L506.618,438.837 L506.618,438.951 C508.095,439.917,509.685,442.643,509.685,447.358 L509.685,469.796 C509.685,474.454,508.038,477.238,506.618,478.204 L506.618,478.317 L526.67,478.317 C530.022,478.317,531.499,478.431,533.601,478.772 L535.191,467.467 Z M568.99,469.342 L560.64,457.299 L567.627,445.824 C570.07,441.848,572.399,439.633,574.16,438.951 L574.16,438.837 L561.663,438.837 L561.663,438.951 C562.571,440.655,561.833,442.189,560.413,444.631 L556.38,451.562 L552.062,444.347 C550.756,442.132,550.188,440.655,550.529,438.951 L550.529,438.837 L537.293,438.837 L537.293,438.951 C539.565,440.257,540.872,441.621,542.405,443.893 L551.381,457.299 L542.576,470.876 C540.247,474.454,537.52,477.295,535.532,478.204 L535.532,478.317 L548.938,478.317 L548.938,478.204 C548.029,477.579,547.632,475.875,549.279,473.205 L555.528,463.036 L561.322,472.012 C563.651,475.59,564.9,477.976,564.9,479.567 L576.773,477.465 L576.773,477.351 C574.785,476.045,571.717,473.318,568.99,469.342 Z M614.833,438.951 L614.833,438.837 L601.086,438.837 L601.086,438.951 C602.449,439.917,603.983,442.643,603.983,447.358 L603.983,454.402 L588.872,454.402 L588.872,447.358 C588.872,442.7,590.463,439.917,591.769,438.951 L591.769,438.837 L578.023,438.837 L578.023,438.951 C579.499,439.917,581.09,442.643,581.09,447.358 L581.09,469.796 C581.09,474.454,579.443,477.238,578.023,478.204 L578.023,478.317 L591.769,478.317 L591.769,478.204 C590.406,477.238,588.872,474.511,588.872,469.796 L588.872,460.083 L603.983,460.083 L603.983,470.024 C603.983,474.454,602.392,477.238,601.086,478.204 L601.086,478.317 L614.833,478.317 L614.833,478.204 C613.356,477.238,611.765,474.511,611.765,470.024 L611.765,447.358 C611.765,442.7,613.412,439.917,614.833,438.951 Z M641.474,479.453 C654.142,479.453,662.606,470.819,662.606,458.151 C662.606,445.938,654.483,437.701,642.326,437.701 C629.204,437.701,621.252,446.165,621.252,458.946 C621.252,470.592,628.75,479.453,641.474,479.453 Z M642.042,473.545 C633.919,473.545,629.716,467.695,629.716,458.378 C629.716,449.517,634.26,443.609,641.758,443.609 C649.484,443.609,654.142,449.119,654.142,458.719 C654.142,467.808,649.03,473.545,642.042,473.545 Z M337.394,560.238 L362.793,560.238 L362.793,560.03 C360.098,558.268,357.195,553.292,357.195,544.687 L357.195,498.554 L383.631,498.554 L383.631,544.687 C383.631,553.292,380.624,558.268,377.929,560.03 L377.929,560.238 L403.328,560.238 L403.328,560.03 C400.736,558.268,397.833,553.188,397.833,544.687 L397.833,503.738 C397.833,495.444,399.803,490.157,402.499,488.394 L402.499,488.187 L338.431,488.187 L338.431,488.394 C341.126,490.157,342.992,495.444,342.992,503.738 L342.992,544.687 C342.992,553.188,339.986,558.268,337.394,560.03 Z M408.408,560.238 L431.319,560.238 L431.319,560.03 C429.867,558.786,429.245,554.639,431.526,547.279 L438.679,524.057 C440.856,516.904,443.033,509.854,443.966,502.597 L444.381,502.597 C445.522,509.854,447.595,516.904,449.772,524.057 L456.925,547.279 C459.206,554.639,458.584,558.683,457.133,560.03 L457.133,560.238 L481.08,560.238 L481.08,560.03 C478.178,557.542,473.616,551.426,470.921,543.236 L457.236,501.872 C455.163,495.651,455.889,490.675,458.584,488.394 L458.584,488.187 L430.282,488.187 L430.282,488.394 C433.081,490.883,434.118,496.066,432.044,502.286 L418.567,543.236 C415.872,551.426,411.31,557.542,408.408,560.03 Z M554.478,486.114 C533.434,486.114,519.749,498.347,516.95,517.422 L506.168,517.422 L506.168,503.738 C506.168,495.237,508.967,490.157,511.456,488.394 L511.456,488.187 L486.367,488.187 L486.367,488.394 C489.063,490.157,491.966,495.133,491.966,503.738 L491.966,544.687 C491.966,553.188,488.959,558.268,486.367,560.03 L486.367,560.238 L511.456,560.238 L511.456,560.03 C508.864,558.268,506.168,553.292,506.168,544.687 L506.168,527.685 L516.535,527.685 C517.676,547.486,531.049,562.311,552.82,562.311 C575.938,562.311,591.385,546.45,591.385,523.435 C591.385,501.25,576.56,486.114,554.478,486.114 Z M553.96,551.529 C539.135,551.529,531.464,540.748,531.464,523.85 C531.464,507.677,539.757,496.895,553.442,496.895 C567.541,496.895,576.042,506.951,576.042,524.472 C576.042,541.266,566.712,551.529,553.96,551.529 Z M638.036,561.793 C646.745,561.793,654.831,559.719,660.118,557.853 L662.606,539.296 L662.399,539.193 C657.008,546.242,650.269,550.804,639.073,550.804 C624.663,550.804,616.991,539.504,616.991,523.642 C616.991,507.677,625.803,497.621,640.421,497.621 C648.403,497.621,655.971,500.731,660.222,507.366 L660.429,507.262 L658.77,489.328 C652.757,487.565,647.159,486.736,640.524,486.736 C616.888,486.736,601.545,501.353,601.545,524.679 C601.545,545.931,615.644,561.793,638.036,561.793 Z"/><g id="def-78a56565-18db-4817-8f0f-1fb3ad2af4a7"><use xlink:href="#def-e8c12f25-3105-4ec6-b8cd-f003933547c5" stroke-width="0"/></g><mask id="mask-b9c34437-b23e-4359-8ee2-9383b098c487" x="104.454" y="104.007" width="791.092" height="791.986" maskUnits="userSpaceOnUse" stroke-width="0"><rect x="140.413" y="139.966" width="719.174" height="720.068" fill="#000"/><use xlink:href="#def-78a56565-18db-4817-8f0f-1fb3ad2af4a7" fill="#fff" stroke="#fff"/></mask><mask id="mask-c3e6d269-ee7b-456f-b93b-024d91f5f5cd" x="317.454" y="417.749" width="365.091" height="164.501" maskUnits="userSpaceOnUse" stroke-width="0"><rect x="324.932" y="425.227" width="350.137" height="149.546" fill="#000"/><use xlink:href="#def-2e0ec8fe-599b-4cac-bce1-645936179480" fill="#fff" stroke="#fff"/></mask></defs><g mask="url(#mask-b9c34437-b23e-4359-8ee2-9383b098c487)"><rect x="140.413" y="139.966" width="719.174" height="720.068" fill="#E47CFC"/></g><g mask="url(#mask-c3e6d269-ee7b-456f-b93b-024d91f5f5cd)"><rect x="324.932" y="425.227" width="350.137" height="149.546" fill="#FFFBF4"/></g></svg>